PathFileType	4	(X/Y/Z)	stereocamera_test1.trc
DataRate	CameraRate	NumFrames	NumMarkers	Units	OrigDataRate	OrigDataStartFrame	OrigNumFrames
28.773259820813234	28.773259820813234	15	15	mm	28.773259820813234	252	335
Frame#	Time	JOINT_NECK			JOINT_RIGHT_CLAVICLE			JOINT_LEFT_CLAVICLE			JOINT_RIGHT_SHOULDER			JOINT_LEFT_SHOULDER			JOINT_RIGHT_ELBOW			JOINT_LEFT_ELBOW			JOINT_LEFT_WRIST			JOINT_RIGHT_WRIST			JOINT_SPINE_3			JOINT_SPINE_2			JOINT_SPINE_1			JOINT_PELVIS			JOINT_RIGHT_HIP			JOINT_LEFT_HIP
		X1	Y1	Z1	X2	Y2	Z2	X3	Y3	Z3	X4	Y4	Z4	X5	Y5	Z5	X6	Y6	Z6	X7	Y7	Z7	X8	Y8	Z8	X9	Y9	Z9	X10	Y10	Z10	X11	Y11	Z11	X12	Y12	Z12	X13	Y13	Z13	X14	Y14	Z14	X15	Y15	Z15

252	1749651079.676000	141.940950	-8.298472	864.070100	74.924500	-15.878260	920.514100	212.328370	-4.064798	858.720240	-0.888566	-22.256330	973.640860	281.289130	3.447667	852.893100	-148.409550	-197.831750	869.435700	346.803780	-153.593540	576.944800	156.013320	-90.699740	477.241750	-205.883180	-99.528626	724.256460	140.151840	-107.348640	839.927260	135.989670	-190.306320	791.882630	140.095200	-293.258130	814.166670	129.209710	-334.767600	704.107100	62.061913	-344.193940	868.867400	nan	nan	nan
253	1749651079.710000	135.522700	-8.088201	835.911200	67.790950	-14.185593	889.329200	208.885360	-4.249290	855.093100	-8.743746	-20.075366	973.247500	284.009800	1.942187	852.188400	-146.651900	-187.302230	862.930600	339.034620	-165.587860	579.844300	153.579820	-79.468870	482.501570	-206.087950	-100.101550	726.097800	133.194860	-99.318980	803.419950	135.567170	-183.963550	815.708400	138.719680	-278.822600	818.777260	134.668740	-345.010220	775.451500	55.970910	-354.685780	877.357360	252.574200	-361.371670	881.025700
254	1749651079.743000	131.788820	-8.242309	795.435200	68.479540	-13.978973	877.107600	214.429140	-4.605412	865.562500	-7.945567	-19.984170	966.124530	284.087360	0.695750	835.883560	-153.218080	-185.230970	883.193200	331.009780	-176.167700	580.816270	156.196090	-63.864380	484.649570	-202.370350	-110.455520	734.998200	134.669770	-95.188856	824.443160	134.616600	-178.477020	824.730300	136.086520	-266.794200	823.684000	129.706410	-337.698880	796.571970	46.021365	-359.521120	881.592630	228.189650	-341.590140	825.093300
255	1749651079.777000	130.189850	-8.895740	808.923240	62.975140	-11.565998	856.527030	209.913150	-6.118596	850.949500	-13.335008	-14.972746	962.102300	270.938780	-4.336119	793.636800	-166.785730	-184.512780	905.027700	322.271440	-184.794320	579.519450	160.841180	-47.536556	481.162900	-201.429960	-129.140620	769.784100	134.737770	-99.327910	828.686500	138.538940	-185.583400	825.309300	140.875010	-272.760360	819.883350	135.894660	-345.863700	787.728850	49.412392	-353.483740	872.786340	nan	nan	nan
256	1749651079.810000	127.579700	-9.385109	820.726000	58.336860	-11.804819	871.695000	209.887740	-7.551223	866.126660	-18.857130	-14.183566	962.828400	248.931850	-5.692527	733.256000	-174.063010	-177.698930	913.807100	311.775000	-191.255570	574.569200	169.937150	-39.165422	472.165350	-188.611050	-137.755890	754.767900	132.101430	-94.883260	828.247250	134.663200	-179.851590	827.753000	137.707340	-262.627870	820.321860	133.695840	-338.192700	799.119400	47.869977	-353.443200	867.508500	219.118280	-330.084300	800.153400
257	1749651079.844000	122.716010	-7.298872	826.252800	55.526342	-9.937227	885.231260	201.734900	-5.311966	855.363500	-23.327330	-12.270004	959.166400	216.260510	-3.539875	651.520400	-177.739490	-178.245710	916.056330	300.687940	-196.365340	564.698400	172.995630	-31.546560	457.785640	-170.099630	-142.031340	715.611300	126.274000	-90.100980	831.207600	129.649520	-175.785420	828.001700	133.268100	-256.215780	820.894060	130.016060	-332.988380	805.942100	45.937050	-352.152880	864.056400	214.194420	-328.170900	797.000940
258	1749651079.877000	120.244610	-5.737543	830.228000	54.282878	-8.669630	892.088230	197.029800	-2.789155	855.265600	-22.665050	-12.719169	944.979370	182.869570	-0.548400	567.098500	-200.309750	-195.370800	894.942940	287.894100	-198.889640	550.396900	177.125830	-28.539333	453.512200	-152.409460	-137.876780	672.002730	122.515360	-86.892940	831.315800	126.146960	-170.363990	824.327500	130.396740	-250.095840	820.318600	128.277080	-328.774030	812.319700	44.002682	-345.587130	863.817200	211.872410	-327.131100	795.392500
259	1749651079.911000	120.173020	-10.095492	829.154100	55.948313	-12.849241	884.904300	194.835050	-8.235484	850.877640	-20.663287	-13.942957	889.736060	156.479300	-4.170038	493.811850	-209.754400	-199.214650	839.559700	274.090400	-195.562530	530.433400	177.941370	-34.466090	443.624800	-160.650700	-153.700710	756.346100	122.457445	-89.483190	826.980230	124.275730	-171.398480	822.025900	126.522450	-249.261510	819.784900	127.106620	-327.927950	811.999740	42.394273	-347.907630	863.413900	208.299430	-325.566350	793.491900
260	1749651079.944000	119.560130	-12.271240	823.298100	57.490908	-13.246238	878.831900	194.225520	-11.456132	853.788600	-17.068075	-13.927311	815.395530	136.746720	-5.760789	439.125840	-195.461470	-198.228540	768.861900	261.144880	-190.535930	504.147700	179.095120	-47.422370	432.300360	-145.577120	-145.193430	736.565230	120.476890	-91.402980	822.877300	120.822810	-172.318740	817.595200	121.897290	-251.378600	818.435850	119.731990	-330.058870	810.973300	34.956260	-352.293070	864.938700	203.066720	-325.149330	794.329760
261	1749651079.978000	120.706240	-15.565053	822.610560	57.132408	-15.822396	860.394840	194.243710	-15.793517	848.579050	-13.834865	-14.491014	745.579600	120.728545	-7.667594	389.338170	-177.247550	-186.130340	731.986940	245.791760	-183.620630	473.983380	179.615510	-63.378945	419.904260	-131.795540	-130.860820	713.080700	119.060420	-94.683170	816.762800	118.566610	-172.668760	811.923600	119.239710	-253.259960	816.864900	117.384420	-331.702770	808.948600	31.734960	-356.075880	867.573500	nan	nan	nan
262	1749651080.011000	120.369020	-16.782299	813.309800	55.725858	-17.249540	860.489850	193.054420	-16.904071	831.500230	-13.705527	-14.556684	668.178200	103.946840	-7.291634	331.715500	-173.417290	-182.532760	711.940600	236.846010	-176.412140	453.135220	179.765540	-80.196570	408.061200	-126.037420	-120.673550	712.497700	119.388240	-94.089360	808.005900	118.572800	-169.330100	799.368500	120.227070	-249.883440	814.501760	121.522650	-327.492980	810.963630	33.916727	-357.508960	868.504200	nan	nan	nan
263	1749651080.044000	120.746820	-14.268436	802.078250	54.823060	-15.715793	861.847760	192.793850	-15.491262	808.916030	-14.253353	-12.020975	651.627360	95.426515	-5.945340	298.995670	-176.883680	-182.376800	702.075000	221.779330	-169.087920	423.822670	180.045900	-99.178660	403.133500	-118.762970	-107.036440	692.923550	121.144500	-91.815590	798.648060	120.732010	-166.640280	787.037200	125.442420	-248.780370	808.676500	123.490900	-319.985150	785.494570	36.692810	-355.730180	869.606850	208.377260	-313.721030	760.710950
264	1749651080.078000	120.432130	-13.384931	791.349000	53.002544	-14.697283	819.323660	190.182860	-14.030397	795.739700	-13.830985	-11.400037	641.458450	111.284620	-6.182402	348.192800	-171.425600	-175.056760	681.097150	208.203800	-161.890000	398.564700	177.302420	-115.096554	406.915280	-117.152005	-95.322120	684.039600	118.134740	-91.524884	771.613600	116.638340	-166.647290	758.158000	124.515760	-256.744900	805.020870	121.794894	-329.627100	781.094970	36.075473	-349.866000	872.508700	nan	nan	nan
265	1749651080.111000	121.713810	-14.706768	797.061300	54.669070	-15.689590	819.752040	187.548400	-17.101593	785.372140	-13.689643	-12.341753	657.038200	178.333450	-10.230675	570.678600	-169.179630	-172.164740	665.358200	nan	nan	nan	169.823770	-129.891530	416.646300	-113.118010	-84.573366	672.285260	118.554090	-98.868990	773.806200	110.456570	-168.322680	716.800870	123.615034	-272.404340	802.122400	116.515990	-330.590780	748.990400	nan	nan	nan	nan	nan	nan
266	1749651080.145000	119.421950	-17.814540	795.272770	53.279757	-18.675998	819.887400	183.815700	-19.224130	781.838600	-14.941715	-13.533674	627.278270	215.595110	-14.350727	691.907100	-166.262580	-172.069430	659.700400	240.392820	-186.171190	455.793920	159.880710	-135.499730	421.777500	-110.155350	-74.042690	657.489840	111.385964	-102.282240	734.723800	103.729220	-176.330210	688.472450	120.804645	-295.717950	801.575800	104.416735	-336.313580	687.165560	nan	nan	nan	nan	nan	nan
